<?xml version="1.0" standalone="no"?>
<!DOCTYPE svg PUBLIC "-//W3C//DTD SVG 20010904//EN"
 "http://www.w3.org/TR/2001/REC-SVG-20010904/DTD/svg10.dtd">
<svg version="1.0" xmlns="http://www.w3.org/2000/svg"
 width="300.000000pt" height="300.000000pt" viewBox="0 0 300.000000 300.000000"
 preserveAspectRatio="xMidYMid meet">
<metadata>
Created by potrace 1.11, written by Peter Selinger 2001-2013
</metadata>
<g transform="translate(0.000000,300.000000) scale(0.100000,-0.100000)"
fill="#000000" stroke="none">
<path d="M1290 2983 c-318 -44 -620 -195 -849 -424 -190 -191 -327 -429 -391
-678 -39 -156 -45 -211 -44 -401 1 -127 6 -189 23 -268 64 -308 196 -554 412
-772 78 -78 224 -195 259 -208 8 -3 28 -14 44 -25 39 -27 172 -91 221 -107 22
-7 45 -15 50 -19 6 -3 15 -6 20 -8 6 -1 44 -11 85 -22 275 -74 591 -62 865 31
419 142 761 475 918 893 35 93 63 194 73 270 3 22 9 63 13 92 9 59 7 318 -2
348 -3 11 -8 40 -11 65 -3 25 -12 72 -21 105 -144 557 -560 968 -1115 1104
-148 36 -386 47 -550 24z"/>
</g>
</svg>
